<svg width="12" height="16" viewBox="0 0 12 16" fill="none" xmlns="http://www.w3.org/2000/svg">
<path d="M2.10231 15.5C1.71347 15.5 1.3806 15.3693 1.1037 15.1081C0.826804 14.8469 0.688354 14.5328 0.688354 14.166V6.82902C0.688354 6.46217 0.826804 6.14813 1.1037 5.88688C1.3806 5.62564 1.71347 5.49502 2.10231 5.49502H4.22323V6.82902H2.10231V14.166H10.586V6.82902H8.46509V5.49502H10.586C10.9749 5.49502 11.3077 5.62564 11.5846 5.88688C11.8615 6.14813 12 6.46217 12 6.82902V14.166C12 14.5328 11.8615 14.8469 11.5846 15.1081C11.3077 15.3693 10.9749 15.5 10.586 15.5H2.10231ZM5.63719 10.831V3.37731L4.50602 4.44451L3.51626 3.49404L6.34416 0.82605L9.17207 3.49404L8.1823 4.44451L7.05114 3.37731V10.831H5.63719Z" fill="#E50059"/>
</svg>
