<svg width="25" height="24" viewBox="0 0 25 24" fill="none" xmlns="http://www.w3.org/2000/svg">
<mask id="mask0_7_240" style="mask-type:alpha" maskUnits="userSpaceOnUse" x="0" y="0" width="25" height="24">
<rect x="0.847351" width="24" height="24" fill="#D9D9D9"/>
</mask>
<g mask="url(#mask0_7_240)">
<path d="M12.8474 19.5135C14.8038 17.7622 16.3009 16.0824 17.3387 14.474C18.3765 12.8657 18.8954 11.457 18.8954 10.2481C18.8954 8.42498 18.3163 6.92627 17.1579 5.7519C15.9996 4.57753 14.5627 3.99035 12.8474 3.99035C11.132 3.99035 9.69512 4.57753 8.53679 5.7519C7.37846 6.92627 6.79929 8.42498 6.79929 10.2481C6.79929 11.457 7.3182 12.8657 8.35602 14.474C9.39385 16.0824 10.891 17.7622 12.8474 19.5135ZM12.8474 20.9403C12.6525 20.9403 12.4576 20.9067 12.2628 20.8394C12.0679 20.7721 11.8916 20.6679 11.7339 20.5269C10.8365 19.7 9.99677 18.8484 9.21472 17.9721C8.43267 17.0958 7.75286 16.2199 7.17529 15.3442C6.59772 14.4686 6.14067 13.6006 5.80414 12.7404C5.46759 11.8801 5.29932 11.0493 5.29932 10.2481C5.29932 7.94038 6.04579 6.07213 7.53874 4.64328C9.03167 3.21443 10.8012 2.5 12.8474 2.5C14.8935 2.5 16.6631 3.21443 18.156 4.64328C19.6489 6.07213 20.3954 7.94038 20.3954 10.2481C20.3954 11.0493 20.2271 11.8785 19.8906 12.7356C19.5541 13.5926 19.0986 14.4606 18.5242 15.3394C17.9499 16.2183 17.2717 17.0942 16.4896 17.9673C15.7076 18.8404 14.8678 19.6903 13.9704 20.5173C13.815 20.6583 13.6385 20.7641 13.4407 20.8346C13.2429 20.9051 13.0451 20.9403 12.8474 20.9403ZM12.8491 11.8654C13.3466 11.8654 13.772 11.6882 14.1252 11.3339C14.4784 10.9795 14.655 10.5536 14.655 10.056C14.655 9.55839 14.4779 9.133 14.1235 8.7798C13.7692 8.4266 13.3432 8.25 12.8457 8.25C12.3481 8.25 11.9227 8.42717 11.5695 8.7815C11.2163 9.13583 11.0397 9.56179 11.0397 10.0594C11.0397 10.557 11.2169 10.9824 11.5712 11.3356C11.9255 11.6888 12.3515 11.8654 12.8491 11.8654Z" fill="#ED4D8B"/>
</g>
</svg>
